<svg id="Layer_1" data-name="Layer 1" xmlns="http://www.w3.org/2000/svg" viewBox="0 0 1920 1080"><defs><style>.cls-1{fill:#385d8a;}.cls-2{fill:none;}</style></defs><title>Artboard 1</title><path class="cls-1" d="M794.66,154.38V473.16h330.69V154.38Zm317.46,306H807.88V167.13h304.23Z"/><polygon class="cls-2" points="883.36 453.17 1036.64 453.17 960 325.21 883.36 453.17"/><polygon class="cls-2" points="811.08 573.86 1108.92 573.86 1036.64 453.17 883.36 453.17 811.08 573.86"/><polygon class="cls-1" points="960 325.21 1036.64 453.17 1052.65 453.17 960 298.47 867.35 453.17 883.36 453.17 960 325.21"/><polygon class="cls-2" points="1108.92 573.86 1052.15 479.08 867.85 479.08 811.08 573.86 1108.92 573.86"/><polygon class="cls-1" points="1131.83 585.38 1068.17 479.08 1052.15 479.08 1108.92 573.86 811.08 573.86 867.85 479.08 851.83 479.08 788.17 585.38 1131.83 585.38"/><path class="cls-2" d="M869.62,567.93h180.5a156.72,156.72,0,0,0-180.5,0Z"/><path class="cls-2" d="M807.76,686c0,81,68.1,146.64,152.12,146.64S1112,767,1112,686c0-48.41-24.34-91.34-61.87-118H869.62C832.1,594.64,807.76,637.56,807.76,686Z"/><path class="cls-1" d="M959.87,539.34a155.21,155.21,0,0,1,90.25,28.6H1071a169.94,169.94,0,0,0-222.2,0h20.85A155.21,155.21,0,0,1,959.87,539.34Z"/><path class="cls-2" d="M959.87,832.62c84,0,152.12-65.65,152.12-146.64a142.88,142.88,0,0,0-35.23-93.82H843A142.88,142.88,0,0,0,807.76,686C807.76,767,875.86,832.62,959.87,832.62Z"/><path class="cls-1" d="M1093.55,592.16h-16.79A142.88,142.88,0,0,1,1112,686c0,81-68.1,146.64-152.12,146.64S807.76,767,807.76,686A142.88,142.88,0,0,1,843,592.16H826.19A154.88,154.88,0,0,0,794.53,686c0,88,74,159.39,165.34,159.39S1125.22,774,1125.22,686A154.88,154.88,0,0,0,1093.55,592.16Z"/></svg>